<svg xmlns="http://www.w3.org/2000/svg" viewBox="0 0 1092.37 429.41"><defs><style>.cls-1{fill:#fff;}.cls-2{fill:#e01b5d;}</style></defs><g id="Layer_2" data-name="Layer 2"><g id="Layer_1-2" data-name="Layer 1"><path class="cls-1" d="M0,180.21V27H107.75V52.9H29.34v34h73v25.82H29.34v41.7h81.18v25.82Z"/><path class="cls-1" d="M139.68,180.21V27h43.91L210,131.5,236,27h44V180.21H252.78V59.59L223.93,180.21H195.68L166.94,59.59V180.21Z"/><path class="cls-1" d="M309.37,180.21V27h47.08q26.78,0,34.89,2.3,12.5,3.45,20.92,15t8.42,29.84q0,14.11-4.85,23.73a41.59,41.59,0,0,1-27.56,22.37q-10.5,2.21-30.43,2.2H338.71v57.8ZM338.71,52.9V96.38h16.06q17.34,0,23.19-2.4a19.51,19.51,0,0,0,9.17-7.53,21.39,21.39,0,0,0,3.32-11.92q0-8.36-4.66-13.79A20,20,0,0,0,374,53.94q-5.25-1-21.12-1Z"/><path class="cls-1" d="M649.65,180.21,615,27h30l21.9,105.26L693.46,27h34.89l25.48,107,22.3-107h29.54L770.39,180.21H739.25L710.31,65.65,681.46,180.21Z"/><rect class="cls-1" x="831.79" y="154.32" width="96.43" height="25.87"/><rect class="cls-1" x="831.79" y="86.89" width="88.14" height="25.87"/><rect class="cls-1" x="831.79" y="26.95" width="93.72" height="25.87"/><rect class="cls-1" x="719.77" y="402.78" width="90.16" height="24.19"/><rect class="cls-1" x="719.77" y="339.73" width="82.41" height="24.19"/><rect class="cls-1" x="719.77" y="283.69" width="87.63" height="24.19"/><path class="cls-1" d="M958.76,180.21V27h61.75q23.29,0,33.85,4.13a33.83,33.83,0,0,1,16.9,14.69,45.93,45.93,0,0,1,6.34,24.14q0,17.25-9.61,28.49t-28.75,14.16A68.86,68.86,0,0,1,1055,125.44q6.19,7,16.71,24.88l17.74,29.89h-35.09l-21.21-33.34q-11.31-17.88-15.47-22.53a22.46,22.46,0,0,0-8.82-6.38q-4.65-1.72-14.77-1.72H988.1v64ZM988.1,91.78h21.7q21.12,0,26.37-1.88a16,16,0,0,0,8.23-6.48,20.8,20.8,0,0,0,3-11.5q0-7.74-3.91-12.49a17.68,17.68,0,0,0-11.06-6q-3.57-.53-21.41-.52H988.1Z"/><path class="cls-1" d="M.3,427V283.69H27l55.6,95.68V283.69h25.49V427H80.55L25.78,333.53V427Z"/><rect class="cls-1" x="137.09" y="402.76" width="81.21" height="24.19"/><rect class="cls-1" x="137.09" y="283.67" width="78.68" height="24.19"/><polygon class="cls-1" points="376.27 426.94 343.05 426.94 318.9 387.1 335.35 362.75 343.69 375.41 376.27 426.94"/><polygon class="cls-1" points="333.09 347.76 333.09 347.76 333.09 347.76 317.43 323.24 340.21 283.67 372 283.67 333.09 347.76"/><path class="cls-1" d="M420.86,427v-119H380.55V283.69h108v24.24H448.29V427Z"/><path class="cls-1" d="M622.15,374.29V350.15h59.14v57.07q-8.62,8.8-25,15.49a86.7,86.7,0,0,1-33.14,6.7q-21.31,0-37.16-9.43a58.9,58.9,0,0,1-23.82-27,91.18,91.18,0,0,1-8-38.16q0-22.38,8.9-39.78a61.5,61.5,0,0,1,26-26.68q13.07-7.12,32.53-7.13,25.3,0,39.53,11.19t18.31,30.93l-27.26,5.37a30.41,30.41,0,0,0-10.79-16.66q-7.92-6.1-19.79-6.11-18,0-28.59,12t-10.61,35.68q0,25.5,10.75,38.26t28.17,12.75a45.11,45.11,0,0,0,17.29-3.57,58.49,58.49,0,0,0,14.87-8.64V374.29Z"/><path class="cls-1" d="M833.46,427V283.69h26.69l55.61,95.68V283.69h25.49V427H913.72L859,333.53V427Z"/><polygon class="cls-2" points="297.66 329.7 286.43 310.69 282.63 304.18 270.45 283.67 238.35 283.67 272.74 339.71 137.09 339.71 137.09 363.9 273.18 363.9 234.08 426.94 266.98 426.94 285.01 397.42 294.34 382.24 297.19 377.41 311.74 353.89 297.66 329.7"/><path class="cls-2" d="M494.24,187.83a1,1,0,0,1-1-.93,1,1,0,0,1,.88-1.13l32.92-3.42L494.17,180a1,1,0,0,1,0-2.06l32.28-2.63-32.28-2.78a1,1,0,0,1,0-2.05L525,167.8l-30.77-2a1,1,0,0,1-.92-1,1,1,0,0,1,.89-1l44.54-4.44a1,1,0,0,1,.19,2.06l-31.95,3.18,31.91,2a1,1,0,0,1,0,2l-32.61,2.81,32.61,2.8a1,1,0,0,1,0,2.06l-31.19,2.54,31.19,2.26a1,1,0,0,1,.9,1,1,1,0,0,1-.88,1l-44.54,4.64Z"/><path class="cls-2" d="M496.73,192H536.3v2.42l-11.88,11.43a3.8,3.8,0,0,1-2.63,1.07h-9.51a3.78,3.78,0,0,1-2.49-.94l-13.06-11.36Z"/><path class="cls-2" d="M559.54,110.65a1.92,1.92,0,0,1-.27.45,1.48,1.48,0,0,0,.2-.37S559.54,110.69,559.54,110.65Z"/><path class="cls-2" d="M566.7,83.49a54.62,54.62,0,0,1-7.16,27.16s0,0-.07.08a1.48,1.48,0,0,1-.2.37c-4.38,7.75-14.7,27-15.13,40.48a4,4,0,0,1-4,3.88l-45.5-1.2a3.91,3.91,0,0,1-3.75-3.54c-.74-5.69-7.39-23.62-16.22-38.09-.24-.37-.43-.7-.63-1a54.57,54.57,0,0,1-7.7-28.11c0-29.23,22.48-52.93,50.15-52.93S566.7,54.26,566.7,83.49Z"/><path class="cls-2" d="M455.05,135.39a1.44,1.44,0,0,1-1.12-.54,1.62,1.62,0,0,1,.16-2.18l16.83-15.2a1.41,1.41,0,0,1,2.06.17,1.6,1.6,0,0,1-.16,2.18L456,135A1.41,1.41,0,0,1,455.05,135.39Z"/><path class="cls-2" d="M442.39,110a1.45,1.45,0,0,1-1.37-1,1.56,1.56,0,0,1,.85-2l20.74-8.21a1.43,1.43,0,0,1,1.88.9,1.56,1.56,0,0,1-.85,2l-20.74,8.21A1.32,1.32,0,0,1,442.39,110Z"/><path class="cls-2" d="M438.71,81.64a1.55,1.55,0,0,1,0-3.09l22.15-.24h0a1.55,1.55,0,0,1,0,3.09l-22.15.24Z"/><path class="cls-2" d="M465.37,61.4a1.37,1.37,0,0,1-.49-.09L444,53.54a1.56,1.56,0,0,1-.89-2,1.44,1.44,0,0,1,1.87-.94l20.89,7.76a1.57,1.57,0,0,1,.9,2A1.47,1.47,0,0,1,465.37,61.4Z"/><path class="cls-2" d="M476.08,44.22a1.38,1.38,0,0,1-.93-.35L458,29a1.62,1.62,0,0,1-.2-2.18,1.43,1.43,0,0,1,2.07-.21L477,41.49a1.6,1.6,0,0,1,.2,2.17A1.43,1.43,0,0,1,476.08,44.22Z"/><path class="cls-2" d="M491.72,32a1.47,1.47,0,0,1-1.27-.76L479.18,11.08A1.6,1.6,0,0,1,479.7,9a1.43,1.43,0,0,1,2,.55L493,29.62a1.6,1.6,0,0,1-.52,2.12A1.43,1.43,0,0,1,491.72,32Z"/><path class="cls-2" d="M510.4,26.06A1.48,1.48,0,0,1,509,24.8l-4.07-23A1.53,1.53,0,0,1,506.06,0a1.46,1.46,0,0,1,1.71,1.23l4.06,23a1.53,1.53,0,0,1-1.16,1.8Z"/><path class="cls-2" d="M529.85,27.26l-.24,0a1.54,1.54,0,0,1-1.2-1.78l3.62-23a1.46,1.46,0,0,1,1.69-1.27,1.54,1.54,0,0,1,1.21,1.78L531.3,26A1.5,1.5,0,0,1,529.85,27.26Z"/><path class="cls-2" d="M547.75,35.4a1.38,1.38,0,0,1-.72-.2,1.58,1.58,0,0,1-.55-2.1l10.88-20.35a1.44,1.44,0,0,1,2-.59,1.6,1.6,0,0,1,.55,2.11L549,34.62A1.46,1.46,0,0,1,547.75,35.4Z"/><path class="cls-2" d="M561.93,49.51a1.44,1.44,0,0,1-1.12-.54,1.61,1.61,0,0,1,.17-2.18L577.8,31.6a1.41,1.41,0,0,1,2.07.16,1.61,1.61,0,0,1-.16,2.18l-16.83,15.2A1.39,1.39,0,0,1,561.93,49.51Z"/><path class="cls-2" d="M570.68,67.89a1.48,1.48,0,0,1-1.37-1,1.56,1.56,0,0,1,.85-2l20.74-8.21a1.46,1.46,0,0,1,1.89.9,1.57,1.57,0,0,1-.86,2l-20.74,8.22A1.49,1.49,0,0,1,570.68,67.89Z"/><path class="cls-2" d="M572.94,88.3a1.55,1.55,0,0,1,0-3.09L595.07,85h0a1.55,1.55,0,0,1,0,3.1L573,88.3Z"/><path class="cls-2" d="M589.33,116.07a1.46,1.46,0,0,1-.49-.09L568,108.22a1.56,1.56,0,0,1-.89-2,1.44,1.44,0,0,1,1.87-1l20.89,7.77a1.55,1.55,0,0,1,.89,2A1.47,1.47,0,0,1,589.33,116.07Z"/><path class="cls-2" d="M574.84,140.31a1.38,1.38,0,0,1-.93-.35l-17.12-14.83a1.62,1.62,0,0,1-.2-2.18,1.42,1.42,0,0,1,2.06-.21l17.12,14.83a1.61,1.61,0,0,1,.2,2.18A1.43,1.43,0,0,1,574.84,140.31Z"/><path class="cls-2" d="M1067.1,427.65h-53.61V389.58l-25-36.94s-5.12-4.73-1.28-14.19S1003,311.64,1003,311.64s2.14-3.6,10.68,0,29.9,6.54,26.91,18.47c0,0-7.69,20.5-26.91,3.61,0,0-1.71,11.94-5.13,18.24,0,0,4.7-4.68,6.12-10.51a.6.6,0,0,1,1-.37c4.38,3.89,25.74,23.57,24.72,36.11-.88,10.79-8.5,11.67-8.5,11.67s9.14,2.41,12.45-7.78c4.09-12.6-17.91-34.07-17.91-34.07s9.69,2.93,13.1-.23c0,0,4.49,13.52,18.16,8.34,0,0,2.56,11,12.18,11,8,0,17.72-15.85,20.82-21.25a.38.38,0,0,1,.71.26c-1.21,8.21-6.84,38.88-24.53,50.73Z"/><path class="cls-2" d="M1040.68,338.75a5.84,5.84,0,0,1-3,5,5.35,5.35,0,0,1-5.6-.1,28.69,28.69,0,0,0,4.57-1.93A25,25,0,0,0,1040.68,338.75Z"/><path class="cls-2" d="M1010.16,304.69l10.39-17.89a5.9,5.9,0,0,1,5.81-3.08,15.58,15.58,0,0,1,5.71,2.25c5.36,3.2,6,7.55,5.86,10a6.83,6.83,0,0,1-1,3l-7,12a1.47,1.47,0,0,1-1.94.64,61.09,61.09,0,0,0-17.16-5.34A1.11,1.11,0,0,1,1010.16,304.69Z"/><path class="cls-2" d="M1032.36,312.28l9.79-16.14a4.55,4.55,0,0,1,2.51-2.11c1.78-.53,4.86-.52,9.09,2.86,4.7,3.76,5.22,7.71,5,9.93a6.68,6.68,0,0,1-.92,2.78l-12,21.29a.22.22,0,0,1-.41-.08c-.13-3.1-1.41-14.56-12.81-17.89A.44.44,0,0,1,1032.36,312.28Z"/><path class="cls-2" d="M1043.6,339.8l16.88-28.16s3.84-5.59,11.74,1,2.35,12.82,2.35,12.82l-17.51,25.68s-2.3,3.66-9.83-1.24C1040.08,345.28,1043.6,339.8,1043.6,339.8Z"/><path class="cls-2" d="M1062,348.36l15.91-23.09s3.21-5.07,10.47,2.14,2.46,12.17,2.46,12.17l-18.16,20.94s-2.24,3.33-7.69-1.57C1060.65,355.07,1058.87,352.85,1062,348.36Z"/></g></g></svg>